<svg xmlns="http://www.w3.org/2000/svg" viewBox="0 0 496.28 80"><defs><style>.cls-1{isolation:isolate;}.cls-2{fill:#0c5ea7;}.cls-3{fill:#171718;}.cls-4{fill:#262528;}.cls-5,.cls-7,.cls-9{fill:#231024;}.cls-5{opacity:0.44;}.cls-5,.cls-9{mix-blend-mode:soft-light;}.cls-6{fill:#ee3724;}.cls-8{fill:#fcefe0;}.cls-10{fill:#ed7394;}</style></defs><title>CatMOD.logo</title><g class="cls-1"><g id="Layer_1" data-name="Layer 1"><path class="cls-2" d="M451.76,80a88.31,88.31,0,0,1-11.93-.91q-3.65-.45-5-1.91c-.92-1-1.31-2.56-1.19-4.74a216.9,216.9,0,0,1,3-22.23q2.37-13.3,5.74-25.61a4.71,4.71,0,0,1,2.55-3.19,11.72,11.72,0,0,1,5-.91q5.56,0,5.56,3.1a9.17,9.17,0,0,1-.55,2.91,170,170,0,0,0-4.74,19.59,232.58,232.58,0,0,0-3.37,23.33c1.83.18,3.89.27,6.2.27q15.94,0,23.78-9.65t7.93-25.79q0-10.84-6.2-16.77t-17.49-5.92a47.75,47.75,0,0,0-14.49,2.28,53.27,53.27,0,0,0-12.85,6,4.37,4.37,0,0,1-2.55.82,2.87,2.87,0,0,1-2.46-1.27,5.77,5.77,0,0,1-.91-3.28,7.53,7.53,0,0,1,.73-3.56A7.08,7.08,0,0,1,431,9.93a46.85,46.85,0,0,1,14.76-6.47,62.75,62.75,0,0,1,16.31-2.28q11.12,0,19.22,3.92a27.88,27.88,0,0,1,12.49,11.3q4.37,7.47,4.37,18,0,13.76-5.47,24.06a38.24,38.24,0,0,1-15.94,15.85Q466.25,80,451.76,80ZM384.85,69.25a19.18,19.18,0,0,0,12.48-4.38,27.44,27.44,0,0,0,8.38-12.11,50.32,50.32,0,0,0,2.92-17.68q0-10.84-4.56-16.4A14.39,14.39,0,0,0,392.32,13a19.08,19.08,0,0,0-12.39,4.37,27.83,27.83,0,0,0-8.39,12.12,48.69,48.69,0,0,0-3,17.68q0,10.85,4.55,16.49A14.51,14.51,0,0,0,384.85,69.25ZM383.94,80a29.67,29.67,0,0,1-14.67-3.64A26.37,26.37,0,0,1,359,65.69a35.23,35.23,0,0,1-3.83-16.94q0-13.86,5-24.42A39.8,39.8,0,0,1,373.91,8a34.45,34.45,0,0,1,19.32-5.74,29.16,29.16,0,0,1,14.58,3.64A26.23,26.23,0,0,1,418.2,16.67q3.82,7,3.82,16.86,0,13.85-5.1,24.42a38.85,38.85,0,0,1-13.76,16.31A34,34,0,0,1,383.94,80ZM258.16,80q-3.38,0-4.83-1.46t-1.46-5.74a59.31,59.31,0,0,1,.55-7.2q.63-4.45,2-12.21,2.37-14.3,3.74-24.78A92.39,92.39,0,0,0,259,17.68c0-2.74-1-4.1-3-4.1q-2.37,0-5.74,2.46a37.19,37.19,0,0,0-7.29,7.65,3.57,3.57,0,0,1-2.82,1.73,2.94,2.94,0,0,1-2.28-1.18,4.75,4.75,0,0,1-.91-2.83,8.31,8.31,0,0,1,.54-2.91,18.1,18.1,0,0,1,2-3.47,33.69,33.69,0,0,1,9.75-9.38A20.07,20.07,0,0,1,260,2.28q5,0,7.65,3.19t2.74,9.29a45.15,45.15,0,0,1-.46,5.83c-.3,2.19-.58,4-.82,5.38s-.42,2.37-.55,2.91Q273.75,14,280.21,8.2t14.21-5.92a11.3,11.3,0,0,1,9.3,4.19q3.45,4.19,3.46,11.84a43.41,43.41,0,0,1-.82,7.48Q310.9,13.2,317,7.74a20.44,20.44,0,0,1,14-5.46q6.38,0,9.75,4.1t3.46,11.48a49.53,49.53,0,0,1-1.18,9.75l-5.56,26.06a40.58,40.58,0,0,0-.91,7.83c0,2.55.58,4.47,1.73,5.74a6.56,6.56,0,0,0,5,1.92,9.91,9.91,0,0,0,5.83-2A37.29,37.29,0,0,0,356,60.5a3.17,3.17,0,0,1,2.46-1.27,2,2,0,0,1,1.82,1.09,5.42,5.42,0,0,1,.73,3A8.6,8.6,0,0,1,359.3,69a35.18,35.18,0,0,1-9.39,8.39A19.47,19.47,0,0,1,340.16,80q-7.74,0-12.12-4.56t-4.37-12.39a80.75,80.75,0,0,1,2.19-15.58L329.5,30.8c.12-.55.34-1.52.64-2.92s.55-2.7.73-3.92a26.64,26.64,0,0,0,.27-3.73,7.35,7.35,0,0,0-1.27-4.74,4,4,0,0,0-3.47-1.64q-4.27,0-9,5.56t-8.93,18.22q-4.18,12.76-6.83,33.17-.64,5.46-2.28,7.38T294.24,80a6.24,6.24,0,0,1-4.56-1.46q-1.37-1.46-1.36-5.46a61.57,61.57,0,0,1,1-9.75q1-6.11,2.55-14.31,4.19-22.05,4.19-28.43c0-2.31-.45-4-1.37-5.1a4.65,4.65,0,0,0-3.91-1.64q-4.47,0-9.21,5.1t-9.29,18q-4.47,12.85-7.47,34.81c-.43,3.1-1.06,5.25-1.91,6.47S260.53,80,258.16,80ZM230.31,8.75q-1.37,0-3.09,3.46A50.85,50.85,0,0,0,224,21.69a128.26,128.26,0,0,0-2.46,13.39,30.73,30.73,0,0,0,8-10.39,25.16,25.16,0,0,0,2.74-10.57Q232.32,8.75,230.31,8.75Zm15.95,50.48a2,2,0,0,1,1.82,1.09,5.34,5.34,0,0,1,.73,3A8.36,8.36,0,0,1,247.08,69a38.57,38.57,0,0,1-8.57,7.93A18.72,18.72,0,0,1,227.85,80q-18.58,0-18.58-26.15c0-2.67.09-5.38.27-8.11H206c-1.83,0-3.07-.33-3.74-1a4.64,4.64,0,0,1-.91-3.19q0-5.1,4.1-5.1h5.19a88.84,88.84,0,0,1,4.74-18.32A42,42,0,0,1,223,4.92Q227.58,0,232.77,0a6.81,6.81,0,0,1,6,3.37A15.27,15.27,0,0,1,241,11.85q0,14.12-11.84,24.6h10.2a2.91,2.91,0,0,1,2.1.63,3.35,3.35,0,0,1,.64,2.37q0,6.28-10.3,6.29H220.66q-.19,4.56-.19,7.11,0,9.46,2.19,13.3A7.69,7.69,0,0,0,229.77,70a10.85,10.85,0,0,0,6.92-2.37,54.72,54.72,0,0,0,7.11-7.11A3.2,3.2,0,0,1,246.26,59.23ZM177.31,70.8c1.34,0,2.61-.79,3.83-2.37a15.5,15.5,0,0,0,2.64-6.29l3.37-16.76A11.13,11.13,0,0,0,180,48.29a19.24,19.24,0,0,0-5.1,7.29A24.63,24.63,0,0,0,173,65.24a6.64,6.64,0,0,0,1.09,4.19A4,4,0,0,0,177.31,70.8ZM174,80a11.09,11.09,0,0,1-9-4.1q-3.37-4.09-3.37-10.75A29.32,29.32,0,0,1,165,51.39a28.46,28.46,0,0,1,8.93-10.48,20.28,20.28,0,0,1,11.93-4,3.31,3.31,0,0,1,2.65.82,5.83,5.83,0,0,1,1.18,2.74,20.84,20.84,0,0,1,4-.37c3,0,4.46,1.06,4.46,3.19a68,68,0,0,1-1.36,9.11q-2.1,10.49-2.1,14.58a3.52,3.52,0,0,0,.64,2.19,2.36,2.36,0,0,0,1.82.82c1.16,0,2.55-.73,4.19-2.19A85.36,85.36,0,0,0,208,60.5a3.17,3.17,0,0,1,2.46-1.27,2,2,0,0,1,1.82,1.09,5.42,5.42,0,0,1,.73,3A8.36,8.36,0,0,1,211.3,69a46.14,46.14,0,0,1-7.93,7.84A13.51,13.51,0,0,1,195.26,80a8.83,8.83,0,0,1-5.56-2A13,13,0,0,1,186,72.35Q181.23,80,174,80Zm-36.77,0a42.51,42.51,0,0,1-18.86-3.92,28.76,28.76,0,0,1-12.3-11.3,32.78,32.78,0,0,1-4.28-16.94,54.14,54.14,0,0,1,5-23.79A39.19,39.19,0,0,1,120.59,8a34,34,0,0,1,19.22-5.74q9.84,0,14.94,5.1t5.11,13.3a17.29,17.29,0,0,1-2,8.93A6.05,6.05,0,0,1,152.29,33a6.2,6.2,0,0,1-4-1.18,4.19,4.19,0,0,1-1.45-3.46,22.3,22.3,0,0,1,.36-3,23.08,23.08,0,0,0,.55-4.37q0-8.3-8.84-8.29a19.4,19.4,0,0,0-11.48,3.91,27.4,27.4,0,0,0-8.84,11.57,44.09,44.09,0,0,0-3.37,18.05q0,10.94,6.1,16.94t18.05,5.93a50.63,50.63,0,0,0,11.93-1.46A95.89,95.89,0,0,0,164.78,63a6.52,6.52,0,0,1,2.27-.55,2.45,2.45,0,0,1,2.19,1.1,5,5,0,0,1,.73,2.82q0,5.57-6,8.2a64,64,0,0,1-13.49,4.19A73.07,73.07,0,0,1,137.26,80Z" transform="translate(-1.86)"/><path class="cls-3" d="M82.5,46.22c2.4-.37,7.54-.87,11.3,1.74s5.43,5.1,3.47,9.76-8,.65-6.41-5.46c0,0-8.11,1.66-12.35.57S82.5,46.22,82.5,46.22Z" transform="translate(-1.86)"/><path class="cls-3" d="M39.49,57.91s-.66,11.89.87,12.61,5.4,1.46,6,3.79-.73,3-.73,3H38.83S31.05,58.88,30.76,57.5s4.43-2.19,4.73-2.22A39.62,39.62,0,0,1,39.49,57.91Z" transform="translate(-1.86)"/><path class="cls-4" d="M20.64,77.8h9.61c.29-4.3-3-4.8-4.73-5.82s6-14.26,6-14.26a19.26,19.26,0,0,1,5.24-1.24s3.35,2.4,10.77,3.7,14.12-2.83,14.12-2.83c-1.38,10.19,4.15,19.36,4.58,19.58s12.09,2.69,11.58-1.82-6.63-1.6-6.63-1.6c-1.36-6.12.83-12.34,2.55-16a30.72,30.72,0,0,1,1.73-3.17h0c4.09,1.31,7.8-5.62,9.8-10.35,1-2.33,1.56-4.12,1.56-4.12l-1.87-.27-11-1.56a5.66,5.66,0,0,1-.92.61,8.53,8.53,0,0,1-3.69,1c-2.85.11-20-8.52-23-9.94S27.52,27.7,25.22,35.34,26,50.29,26,50.29C14.64,65.36,20.64,77.8,20.64,77.8Z" transform="translate(-1.86)"/><path class="cls-4" d="M31.17,38.48a7.69,7.69,0,0,0-1.94-2.72,13,13,0,0,0-2.73-1.92c-.49-.27-1-.48-1.52-.7l-1.47-.54-2.72-1c-1.8-.63-3.57-1.25-5.3-1.89s-3.39-1.3-5-1.9a16.5,16.5,0,0,1-4.4-2.22,4.12,4.12,0,0,1-1.32-1.75,4.25,4.25,0,0,1-.12-2.37,8.81,8.81,0,0,1,1-2.54,13.82,13.82,0,0,1,1.54-2.33,18.3,18.3,0,0,1,4.21-3.7,27.5,27.5,0,0,1,4.81-2.43,16.75,16.75,0,0,1,4.68-1.23,8.73,8.73,0,0,1,4.12.57,12.77,12.77,0,0,1,3.55,2.24,16,16,0,0,1,2.94,3.19,4.17,4.17,0,0,1,.47,1,1.36,1.36,0,0,1-.27,1.1,6.81,6.81,0,0,1-1.51,1.56,17.74,17.74,0,0,1-2.21,1.49c-1.61.95-3.39,1.79-5.22,2.64l.07.71a21,21,0,0,0,6.29.13,16.44,16.44,0,0,0,3.24-.75,10.58,10.58,0,0,0,3.31-1.79,7.39,7.39,0,0,0,2.56-4,8.3,8.3,0,0,0-.34-4.77A12.43,12.43,0,0,0,37,10.74c-.33-.52-.65-1.12-1-1.58a17.52,17.52,0,0,0-1.1-1.38A14.4,14.4,0,0,0,33.66,6.5a15.18,15.18,0,0,0-6.48-3.77,14,14,0,0,0-1.9-.4c-.64-.08-1.29-.11-1.93-.13a15.64,15.64,0,0,0-3.71.45,17.39,17.39,0,0,0-6.32,2.87,23.67,23.67,0,0,0-4.65,4.56,52,52,0,0,0-3.51,5.19,30.06,30.06,0,0,0-2.74,5.64,9.12,9.12,0,0,0-.55,3.46A8.8,8.8,0,0,0,2.9,28a14.81,14.81,0,0,0,4.74,5.11,20,20,0,0,0,5.83,2.68A35.77,35.77,0,0,0,19.53,37c1,.14,2,.23,3,.29l1.42.05c.44,0,.89,0,1.32.09a14.55,14.55,0,0,1,5.28,1.43Z" transform="translate(-1.86)"/><path class="cls-4" d="M62.4,14.15v0c0,.08,0,.17,0,.26.34,2.11,4.23,8.41,4.49,8.82a0,0,0,0,1,0,0c-.38.59-2,7.2-2,7.2l1.46.71-1.46,1.14s2.11,4,8.11,6.35a25.74,25.74,0,0,0,7.37,1.62h.07a21.69,21.69,0,0,0,6.33-.4l.95-.24a14.27,14.27,0,0,0,8.59-6.17l-1.08-1.21c2.61-.77-.21-8.17-.89-9.86-.09-.22-.15-.34-.15-.34s2.35-11.25,1.2-11.63-9.55,5.19-9.55,5.19c-5.35-1.8-11.57.38-11.57.38S63.7,13.13,62.56,13.78A.42.42,0,0,0,62.4,14.15Z" transform="translate(-1.86)"/><path class="cls-5" d="M88.94,30.27h0c5-1,3.24-7.21,3.24-7.21-8.49-2.67-8.31,6.86-8.31,6.86A11.79,11.79,0,0,0,88.94,30.27Z" transform="translate(-1.86)"/><path class="cls-6" d="M88.74,29.64h0c4.61-.93,3-6.61,3-6.61-7.78-2.44-7.61,6.28-7.61,6.28A10.72,10.72,0,0,0,88.74,29.64Z" transform="translate(-1.86)"/><path class="cls-7" d="M86.94,23.21a8,8,0,0,0-.14,1.92,7.77,7.77,0,0,0,.26,1.52,6,6,0,0,0,.25.71,6.26,6.26,0,0,0,.33.7,8.33,8.33,0,0,0,1.1,1.58,3.22,3.22,0,0,0,1-1.82,4,4,0,0,0-.09-1.92,4.21,4.21,0,0,0-.93-1.66,4.32,4.32,0,0,0-.77-.63A2.72,2.72,0,0,0,86.94,23.21Z" transform="translate(-1.86)"/><path class="cls-8" d="M88.94,26a.64.64,0,0,0,.66.61.65.65,0,0,0,.61-.67.64.64,0,0,0-.67-.6A.62.62,0,0,0,88.94,26Z" transform="translate(-1.86)"/><path class="cls-9" d="M83.91,29.45a8.67,8.67,0,0,1,2.89-3.76,15.56,15.56,0,0,1,2.09-1.4,19.68,19.68,0,0,1,3-1.42C83.73,20.31,83.91,29.45,83.91,29.45Z" transform="translate(-1.86)"/><path class="cls-5" d="M78.51,30.15S77.8,21,70,24.38C70,24.38,68.19,33.8,78.51,30.15Z" transform="translate(-1.86)"/><path class="cls-6" d="M78.67,29.71S78,20.61,70.11,24C70.11,24,68.35,33.37,78.67,29.71Z" transform="translate(-1.86)"/><path class="cls-7" d="M75.09,23.64a7.89,7.89,0,0,1,.33,2,7.08,7.08,0,0,1-.11,1.62,6.8,6.8,0,0,1-.18.75,7.94,7.94,0,0,1-.28.77,8.68,8.68,0,0,1-1,1.75,3.36,3.36,0,0,1-1.24-1.79,4.25,4.25,0,0,1-.1-2,4.38,4.38,0,0,1,.8-1.82,3.71,3.71,0,0,1,.74-.74A2.9,2.9,0,0,1,75.09,23.64Z" transform="translate(-1.86)"/><path class="cls-8" d="M74.6,26.66a.66.66,0,1,0,1.32-.06.66.66,0,1,0-1.32.06Z" transform="translate(-1.86)"/><path class="cls-9" d="M78.67,29.71a8.62,8.62,0,0,0-3.25-3.45,16.61,16.61,0,0,0-2.21-1.2A19.57,19.57,0,0,0,70.11,24C78,20.61,78.67,29.71,78.67,29.71Z" transform="translate(-1.86)"/><path class="cls-10" d="M83,31s-.41-.59-1.8-.52-1.67.69-1.67.69.85,1.81,1.73,1.76S83,31,83,31Z" transform="translate(-1.86)"/><path class="cls-10" d="M94.35,22.42a3.56,3.56,0,0,0-.14-.34s2.35-11.24,1.2-11.63c0,0-1.51,8.3-3.54,9.55Z" transform="translate(-1.86)"/><path class="cls-10" d="M62.4,14.15v0a2.48,2.48,0,0,0,0,.27c.33,2.12,4.22,8.41,4.48,8.82v0l1.37-2.41Z" transform="translate(-1.86)"/><path class="cls-3" d="M79.55,39.65l.84.65L85.23,44c1-2.33,1.56-4.12,1.56-4.12l.95-.24,0-.34s-1.23.17-2.78.31A22.92,22.92,0,0,1,79.55,39.65Z" transform="translate(-1.86)"/></g></g></svg>